<svg width="36" height="36" viewBox="0 0 36 36" fill="none" xmlns="http://www.w3.org/2000/svg">
<g clip-path="url(#clip0_2_1527)">
<path fill-rule="evenodd" clip-rule="evenodd" d="M30.844 10.207L28.124 21.777H12.534L9.82401 10.207H30.844Z" stroke="#333333" stroke-width="1.7" stroke-linecap="square" stroke-linejoin="round"/>
<path d="M25.684 29.467C26.8659 29.467 27.824 28.5089 27.824 27.327C27.824 26.1451 26.8659 25.187 25.684 25.187C24.5021 25.187 23.544 26.1451 23.544 27.327C23.544 28.5089 24.5021 29.467 25.684 29.467Z" stroke="#333333" stroke-width="1.7" stroke-linecap="square" stroke-linejoin="round"/>
<path d="M14.974 29.467C16.1559 29.467 17.114 28.5089 17.114 27.327C17.114 26.1451 16.1559 25.187 14.974 25.187C13.7921 25.187 12.834 26.1451 12.834 27.327C12.834 28.5089 13.7921 29.467 14.974 29.467Z" stroke="#333333" stroke-width="1.7" stroke-linecap="square" stroke-linejoin="round"/>
<path d="M5.164 6.547H8.964L10.724 14.047" stroke="#333333" stroke-width="1.7" stroke-linecap="square" stroke-linejoin="round"/>
</g>
<defs>
<clipPath id="clip0_2_1527">
<rect width="36" height="36" fill="white"/>
</clipPath>
</defs>
</svg>
