<svg width="36" height="36" viewBox="0 0 36 36" fill="none" xmlns="http://www.w3.org/2000/svg">
<path fill-rule="evenodd" clip-rule="evenodd" d="M28.927 8.89301C28.3271 8.29267 27.6147 7.81642 26.8307 7.4915C26.0466 7.16657 25.2062 6.99933 24.3575 6.99933C23.5088 6.99933 22.6684 7.16657 21.8843 7.4915C21.1003 7.81642 20.3879 8.29267 19.788 8.89301L17.959 10.721L16.132 8.89301C14.9202 7.68097 13.2766 6.99995 11.5627 6.99976C9.84881 6.99957 8.20504 7.68024 6.993 8.89201C5.78096 10.1038 5.09993 11.7474 5.09975 13.4613C5.09956 15.1752 5.78022 16.819 6.992 18.031L8.82 19.86L17.252 28.294C17.4395 28.4815 17.6938 28.5868 17.959 28.5868C18.2242 28.5868 18.4785 28.4815 18.666 28.294L27.099 19.86L28.927 18.032C29.5272 17.4321 30.0033 16.7198 30.3281 15.9359C30.653 15.1519 30.8202 14.3116 30.8202 13.463C30.8202 12.6144 30.653 11.7741 30.3281 10.9902C30.0033 10.2062 29.5272 9.49392 28.927 8.89401V8.89301Z" stroke="#333333" stroke-width="1.7" stroke-linecap="round"/>
</svg>
