<svg width="103" height="32" viewBox="0 0 103 32" fill="none" xmlns="http://www.w3.org/2000/svg">
<g clip-path="url(#clip0_2_2032)">
<g opacity="0.5">
<path d="M21.405 19.7603V24.7032H19.004V11.4527H21.3879V12.7672C22.0184 11.8382 23.0879 11.26 24.3671 11.26C26.751 11.26 28.9234 13.1703 28.9234 16.187C28.9234 19.2037 26.7152 21.1123 24.3842 21.1123C23.1055 21.11 22.0361 20.637 21.405 19.7603ZM26.5054 16.1677C26.5054 14.6775 25.349 13.5035 23.8941 13.5035C22.4045 13.5035 21.2651 14.6974 21.2651 16.1677C21.2651 17.6379 22.4022 18.8313 23.8941 18.8313C25.349 18.8313 26.5054 17.6573 26.5054 16.1677Z" fill="black"/>
<path d="M50.8692 11.4527H53.2856V12.5745C53.8638 11.7523 54.7751 11.26 55.9145 11.26C57.3359 11.26 58.2984 11.8382 58.8067 12.8547C59.4025 11.8734 60.4714 11.2628 61.7683 11.2628C64.1698 11.2628 65.3791 12.7348 65.3791 15.1011V20.9173H62.89V15.4479C62.89 14.1681 62.3641 13.3795 61.1377 13.3795C60.0507 13.3795 59.332 14.1186 59.332 15.6054V20.9173H56.8611V15.3785C56.8611 14.1169 56.3352 13.3807 55.1606 13.3807C54.0235 13.3807 53.3032 14.1345 53.3032 15.6594V20.9173H50.8692V11.4527Z" fill="black"/>
<path d="M71.5131 11.276C69.4942 11.276 67.8255 12.3977 67.0392 14.0437C66.7166 14.7231 66.5505 15.4662 66.5531 16.2184C66.5531 18.9701 68.5157 21.1261 71.5654 21.1261C73.561 21.1261 74.863 20.3386 75.8039 19.1043L73.8259 17.9621C73.3489 18.6262 72.632 19.0423 71.6007 19.0423C70.1986 19.0423 69.1991 18.2708 68.8841 17.0439H76.3401C76.381 16.7712 76.4017 16.4958 76.402 16.2201V16.1302C76.4032 13.3267 74.3501 11.276 71.5131 11.276ZM68.9546 15.1495C69.3401 14.0454 70.2867 13.3267 71.5131 13.3267C72.7747 13.3267 73.6861 13.9754 74.0016 15.1495H68.9546Z" fill="black"/>
<path d="M77.6102 11.4528H80.0288V12.6468C80.6423 11.7883 81.6207 11.2623 82.7982 11.2623C85.0417 11.2623 86.4613 12.7343 86.4613 15.2058V20.9174H83.9899V15.5731C83.9899 14.2239 83.3411 13.3825 82.0619 13.3825C80.9248 13.3825 80.0464 14.2239 80.0464 15.6959V20.9174H77.6102V11.4528Z" fill="black"/>
<path d="M87.1043 11.4528H88.8566V9.40203L91.2405 8V11.4528H93.729V13.5911H91.2405V17.4822C91.2405 18.4812 91.6612 18.8314 92.2747 18.8314C92.6073 18.8314 92.8705 18.7262 93.1508 18.4812L94.2549 20.3739C93.6415 20.8287 92.8705 21.0925 91.9938 21.0925C90.0136 21.0925 88.8566 20.1459 88.8566 17.5675V13.5877H87.1043V11.4528Z" fill="black"/>
<path d="M37.2174 12.662C36.5692 11.7859 35.535 11.26 34.2905 11.26C31.8719 11.26 29.6983 13.1703 29.6983 16.1847C29.6983 19.1992 31.9242 21.11 34.2558 21.11C35.4827 21.11 36.5516 20.5489 37.2174 19.6204V20.9173H39.6013V11.4556H37.2174V12.662ZM34.7288 18.8313C33.2739 18.8313 32.0999 17.6573 32.0999 16.1677C32.0999 14.6781 33.2739 13.5035 34.7288 13.5035C36.2184 13.5035 37.3578 14.6974 37.3578 16.1677C37.3578 17.6379 36.2184 18.8313 34.7288 18.8313Z" fill="black"/>
<path d="M47.6695 11.4528L45.3385 17.5522L42.8846 11.4528H40.308L44.1115 20.5143L44.161 20.6326L42.6265 24.6476L42.6185 24.6681H45.1423L50.1933 11.4528H47.6695Z" fill="black"/>
<path d="M96.5127 17.8558C96.9357 18.6955 97.6909 19.1316 98.6898 19.1293C99.6717 19.1265 100.196 18.6523 100.195 18.0912C100.195 17.4089 99.1758 17.2525 97.9654 17.0109C96.3695 16.6823 94.5974 16.1962 94.5917 14.1978C94.5877 12.6058 96.1267 11.214 98.4577 11.2254C100.311 11.2203 101.471 11.865 102.333 12.9629L100.324 14.1301C99.9365 13.5001 99.3396 13.1334 98.4629 13.1357C97.5163 13.1385 97.0614 13.5252 97.0631 14.0511C97.0631 14.6469 97.8363 14.8027 99.2236 15.0972C100.802 15.4082 102.663 15.9466 102.668 17.9797C102.672 19.4523 101.36 21.1209 98.6085 21.1107C96.5333 21.1164 95.1614 20.4006 94.3671 19.1032L94.3636 19.0975L96.5127 17.8558Z" fill="black"/>
<path d="M15.2214 15.6026C15.0417 14.0644 14.3076 12.6443 13.1564 11.6083C12.0053 10.5722 10.516 9.9912 8.9674 9.974H8.8969C8.64992 9.97411 8.40315 9.98834 8.15779 10.0167C7.28987 10.1166 6.45195 10.3947 5.69656 10.8337C5.68007 10.8433 5.66472 10.853 5.64823 10.8621L5.60616 10.8871C1.96519 13.0555 0.666626 18.0633 0.666626 21.1101L3.59862 19.4176C4.63224 21.3864 6.61476 22.6839 8.82527 22.7077H8.89577C9.14276 22.7074 9.38953 22.693 9.63488 22.6645C11.3121 22.4687 12.8428 21.6148 13.8905 20.2904C14.9381 18.9661 15.4169 17.2799 15.2214 15.6026Z" fill="black"/>
</g>
</g>
<defs>
<clipPath id="clip0_2_2032">
<rect width="102" height="32" fill="white" transform="translate(0.666626)"/>
</clipPath>
</defs>
</svg>
